<?xml version="1.0" standalone="no"?>
<!DOCTYPE svg PUBLIC "-//W3C//DTD SVG 20010904//EN"
 "http://www.w3.org/TR/2001/REC-SVG-20010904/DTD/svg10.dtd">
<svg version="1.0" xmlns="http://www.w3.org/2000/svg"
 width="570.000000pt" height="160.000000pt" viewBox="0 0 570.000000 160.000000"
 preserveAspectRatio="xMidYMid meet">

<g transform="translate(0.000000,160.000000) scale(0.100000,-0.100000)"
fill="#000000" stroke="none">
<path d="M2535 1347 c-77 -19 -90 -26 -93 -44 -4 -24 19 -34 68 -30 l25 2 5
-400 5 -400 50 -24 c66 -32 197 -40 276 -18 96 29 178 107 209 202 18 52 18
167 1 227 -40 140 -205 211 -345 149 -27 -11 -50 -21 -52 -21 -2 0 -4 86 -4
190 l0 190 -27 -1 c-16 0 -68 -10 -118 -22z m344 -424 c14 -11 36 -39 49 -63
27 -53 30 -159 7 -236 -24 -81 -107 -144 -189 -144 -69 0 -66 -10 -66 226 0
118 1 214 3 214 1 0 20 7 42 15 50 19 119 13 154 -12z"/>
<path d="M295 1279 c-43 -12 -95 -69 -105 -115 -11 -46 1 -100 30 -137 l20
-26 -20 -6 c-11 -3 -25 -15 -31 -26 -13 -26 12 -69 41 -69 23 0 33 -30 28 -81
-2 -27 -9 -37 -35 -48 -18 -8 -35 -21 -38 -29 -7 -19 21 -62 41 -62 13 0 12
-5 -5 -26 -63 -80 -39 -199 50 -244 36 -19 60 -20 408 -20 328 0 371 2 386 16
24 25 15 57 -22 74 -53 25 -58 123 -7 136 14 4 29 15 35 26 10 19 4 58 -9 58
-4 0 -13 4 -21 9 -11 7 -9 15 10 41 33 44 34 131 1 177 -27 38 -27 39 -2 46
11 3 23 13 26 22 10 24 -12 65 -35 65 -24 0 -41 28 -41 65 0 38 16 62 45 69
36 9 45 54 15 78 -20 16 -45 18 -280 18 -203 0 -260 -3 -269 -13 -6 -8 -8 -17
-4 -20 3 -4 125 -7 270 -7 169 0 263 -4 263 -10 0 -6 -123 -10 -347 -11 -392
0 -407 -2 -436 -61 -21 -43 -15 -77 20 -113 l25 -25 366 -2 c281 -2 366 -6
370 -15 3 -10 -74 -13 -361 -13 -362 0 -364 0 -398 23 -46 31 -61 63 -55 117
3 35 11 51 40 77 34 32 39 33 115 33 78 0 109 12 80 31 -18 11 -124 10 -164
-2z m680 -154 l0 -65 -327 0 c-315 0 -329 1 -348 20 -24 24 -26 67 -3 92 15
17 39 18 347 18 l331 0 0 -65z m4 -179 c61 -32 83 -121 44 -175 -37 -50 -153
-85 -153 -46 0 11 11 15 35 15 101 0 149 91 86 162 l-29 33 -371 3 c-230 2
-371 6 -371 12 0 6 137 10 365 10 300 0 371 -3 394 -14z m-17 -63 c22 -20 24
-76 3 -93 -8 -6 -32 -14 -55 -17 -38 -5 -40 -4 -40 20 0 16 7 26 20 30 11 3
20 10 20 16 0 8 -73 11 -241 11 -188 0 -240 -3 -236 -12 4 -14 18 -15 185 -17
102 -1 102 -1 102 -26 l0 -25 -214 0 -213 0 0 65 0 65 325 0 c289 0 327 -2
344 -17z m-132 -170 c0 -105 0 -106 -20 -88 -19 17 -21 17 -40 0 -20 -18 -20
-17 -20 88 l0 107 40 0 40 0 0 -107z m-115 12 c0 -10 -457 -20 -483 -10 -7 3
-10 9 -7 15 9 14 490 9 490 -5z m-1 -66 c-3 -5 -94 -9 -203 -9 -187 0 -200 -1
-225 -21 -55 -43 -54 -116 1 -159 24 -19 40 -20 253 -20 125 0 230 3 233 7 4
3 2 12 -4 20 -9 10 -60 13 -232 13 -191 0 -223 2 -239 17 -24 22 -23 65 3 89
19 17 38 19 217 19 189 0 197 -1 200 -20 7 -46 11 -47 44 -21 l33 25 28 -27
c24 -22 29 -24 38 -12 5 8 7 23 5 32 -5 20 12 26 68 24 l39 -1 1 -63 1 -62
-71 0 c-48 0 -75 -4 -83 -13 -6 -8 -8 -17 -4 -20 3 -4 55 -7 115 -7 64 0 108
-4 108 -10 0 -18 -46 -21 -385 -18 -303 3 -344 5 -372 21 -58 31 -79 106 -49
166 28 53 36 56 225 61 195 6 264 3 255 -11z m324 2 c2 -7 -24 -11 -82 -11
-62 0 -86 3 -86 13 0 16 162 15 168 -2z"/>
<path d="M2205 1255 c-50 -50 -23 -130 47 -142 32 -5 41 -1 68 25 57 58 25
142 -55 142 -25 0 -44 -8 -60 -25z"/>
<path d="M1380 1225 c0 -14 6 -27 13 -29 6 -2 31 -9 55 -15 l42 -12 -2 -327
-3 -327 -53 -14 c-48 -13 -53 -17 -50 -40 l3 -26 304 -3 c168 -1 308 1 312 5
4 5 11 60 15 124 6 102 5 117 -10 122 -29 11 -41 -2 -71 -86 l-30 -82 -138 -3
-137 -3 2 333 3 332 43 11 c43 10 69 36 57 55 -4 6 -76 10 -181 10 l-174 0 0
-25z"/>
<path d="M3595 1029 c-57 -10 -91 -25 -131 -55 l-34 -26 0 31 c0 20 -6 34 -17
38 -9 3 -61 -5 -117 -18 -94 -23 -101 -26 -101 -49 0 -22 5 -25 35 -26 19 0
41 -1 48 -2 10 -2 12 -48 10 -209 l-3 -207 -45 -11 c-38 -9 -45 -15 -45 -35
l0 -25 155 -3 c182 -3 203 0 198 31 -2 18 -13 24 -58 32 l-55 10 -3 190 -2
190 30 19 c25 14 47 17 108 14 l77 -3 3 54 c2 30 0 57 -5 61 -4 4 -26 3 -48
-1z"/>
<path d="M3935 1033 c-62 -7 -154 -35 -169 -52 -15 -16 -14 -21 7 -62 13 -24
31 -45 40 -47 10 -2 46 22 83 54 62 55 66 57 101 48 52 -13 72 -46 75 -124 l3
-65 -75 -7 c-195 -20 -280 -81 -280 -202 0 -98 70 -156 191 -156 50 0 77 6
117 26 l52 26 32 -27 c28 -24 39 -27 83 -23 59 5 115 39 115 69 0 16 -7 19
-44 19 l-44 0 -4 193 c-4 208 -9 229 -65 281 -37 34 -142 58 -218 49z m145
-403 l0 -90 -32 -20 c-37 -22 -103 -26 -142 -9 -29 14 -51 68 -41 101 18 57
98 107 173 108 l42 0 0 -90z"/>
<path d="M4769 1029 c-44 -7 -99 -31 -146 -65 -23 -16 -23 -16 -23 20 0 44 -5
44 -140 13 -73 -18 -96 -27 -98 -41 -5 -26 17 -36 61 -29 l37 6 -2 -214 -3
-213 -45 -11 c-46 -11 -65 -39 -38 -56 7 -5 88 -9 181 -9 l167 0 0 28 c0 27
-3 29 -57 38 l-58 9 -3 188 -2 187 32 21 c29 18 43 20 109 15 73 -6 77 -5 83
16 8 32 7 96 -1 101 -5 2 -29 0 -54 -4z"/>
<path d="M2185 997 c-83 -21 -90 -24 -90 -47 0 -23 4 -25 45 -25 l45 0 0 -210
0 -209 -45 -11 c-38 -9 -45 -15 -45 -35 l0 -25 165 0 165 0 0 25 c0 20 -7 26
-45 35 l-45 11 -5 254 -5 255 -25 2 c-14 1 -65 -8 -115 -20z"/>
<path d="M4850 995 c0 -20 7 -26 39 -36 25 -8 43 -21 51 -38 69 -144 230 -507
230 -516 0 -7 -36 -70 -80 -141 -78 -125 -80 -129 -62 -147 24 -24 88 -39 100
-23 5 6 60 144 122 306 62 162 135 352 161 421 l49 126 43 9 c36 8 42 13 45
37 l3 28 -128 -3 -128 -3 0 -25 c0 -21 6 -26 44 -33 37 -7 42 -11 38 -30 -9
-42 -122 -329 -130 -330 -4 -1 -43 77 -87 173 -85 189 -84 180 -17 194 21 5
27 12 27 31 l0 25 -160 0 -160 0 0 -25z"/>
</g>
</svg>
